# xmcd
#
# Track frame offsets:
#	150
#	5556
#	8324
#	14667
#	18859
#	21199
#	30827
#	32259
#	42956
#	49959
#	59578
#
# Disc length: 811 seconds
#
# Revision: 1
# Processed by: cddbd v1.5.2PL0 Copyright (c) Steve Scherf et al.
# Submitted via: audiograbber 1.83.01
#
DISCID=7303290b
DTITLE=Halo of Knives - eat god
DYEAR=2007
DGENRE=Grindcore
TTITLE0=all too human
TTITLE1=a piercing gaze
TTITLE2=watch the red devils burn
TTITLE3=between the devil and the deep blue sea
TTITLE4=condensed flesh
TTITLE5=intifada and the politic of revenge
TTITLE6=going out on a high note
TTITLE7=mask of sanity
TTITLE8=moods like a guillotine
TTITLE9=bury me at makeout creek
TTITLE10=the kill
EXTD=
EXTT0=
EXTT1=
EXTT2=
EXTT3=
EXTT4=
EXTT5=
EXTT6=
EXTT7=
EXTT8=
EXTT9=
EXTT10=
PLAYORDER=
